<?xml version="1.0" encoding="UTF-8"?><svg id="Layer_1" xmlns="http://www.w3.org/2000/svg" viewBox="0 0 150 150"><defs><style>.cls-1{fill:#ef8722;stroke-width:0px;}</style></defs><polygon class="cls-1" points="75 0 84.86 12.77 98.18 3.67 103.6 18.87 119.08 14.32 119.55 30.45 135.68 30.92 131.13 46.4 146.33 51.82 137.23 65.14 150 75 137.23 84.86 146.33 98.18 131.13 103.6 135.68 119.08 119.55 119.55 119.08 135.68 103.6 131.13 98.18 146.33 84.86 137.23 75 150 65.14 137.23 51.82 146.33 46.4 131.13 30.92 135.68 30.45 119.55 14.32 119.08 18.87 103.6 3.67 98.18 12.77 84.86 0 75 12.77 65.14 3.67 51.82 18.87 46.4 14.32 30.92 30.45 30.45 30.92 14.32 46.4 18.87 51.82 3.67 65.14 12.77 75 0"/></svg>