<?xml version="1.0" standalone="no"?>
<!DOCTYPE svg PUBLIC "-//W3C//DTD SVG 20010904//EN"
 "http://www.w3.org/TR/2001/REC-SVG-20010904/DTD/svg10.dtd">
<svg version="1.0" xmlns="http://www.w3.org/2000/svg"
 width="542.000000pt" height="542.000000pt" viewBox="0 0 542.000000 542.000000"
 preserveAspectRatio="xMidYMid meet">
<metadata>
Created by potrace 1.14, written by Peter Selinger 2001-2017
</metadata>
<g transform="translate(0.000000,542.000000) scale(0.100000,-0.100000)"
fill="#000000" stroke="none">
<path d="M3755 4125 l-50 -23 -389 -973 c-214 -536 -406 -1009 -427 -1051 -65
-130 -123 -179 -239 -203 -44 -9 -56 -16 -58 -33 l-3 -22 361 0 361 0 -3 22
c-2 18 -13 24 -60 34 -136 27 -198 72 -198 144 0 50 119 442 185 613 7 16 32
17 335 17 l328 0 32 -87 c77 -212 162 -470 173 -518 16 -76 -1 -111 -69 -142
-29 -13 -72 -27 -96 -31 -34 -6 -44 -12 -46 -30 l-3 -22 491 0 491 0 -3 22
c-2 18 -12 24 -47 30 -106 18 -173 75 -234 202 -54 109 -334 865 -650 1751
-63 175 -118 320 -123 321 -5 1 -32 -8 -59 -21z m-35 -963 c73 -216 131 -395
128 -397 -3 -3 -131 -4 -285 -3 l-279 3 141 380 c169 457 155 419 159 414 1
-2 63 -181 136 -397z"/>
<path d="M570 4076 c0 -21 6 -24 56 -31 129 -16 185 -49 215 -125 11 -29 14
-187 17 -855 5 -1192 -12 -1420 -119 -1586 -37 -58 -94 -111 -149 -139 -43
-22 -46 -27 -27 -52 12 -15 17 -15 67 3 92 32 175 78 257 144 178 143 294 298
352 475 54 165 53 151 61 1090 6 658 11 886 20 918 23 78 75 112 198 128 46 6
52 9 52 30 l0 24 -500 0 -500 0 0 -24z"/>
<path d="M1750 4076 c0 -22 6 -24 75 -35 101 -15 149 -40 177 -94 l23 -42 0
-970 c0 -1000 -3 -1107 -42 -1280 -30 -135 -113 -256 -216 -315 -47 -27 -47
-27 -30 -48 l18 -22 83 34 c109 44 205 109 309 209 146 140 219 251 267 405
58 187 59 193 65 1127 6 834 7 861 26 900 28 55 72 81 161 96 68 11 74 14 74
35 l0 24 -495 0 -495 0 0 -24z"/>
</g>
</svg>
