<?xml version="1.0" encoding="UTF-8"?><svg id="Layer_1" xmlns="http://www.w3.org/2000/svg" viewBox="0 0 210 19.61"><defs><style>.cls-1{fill:#fff;stroke-width:0px;}</style></defs><path class="cls-1" d="M5.75,1.66c-1.33.16-1.49.28-1.49,2.13v6.51c0,2.33-.08,4.02-1.71,5.61-.88.88-1.61,1.27-2.41,1.49l-.14-.24c.76-.32,1.37-1,1.55-2.27.18-1.19.22-2.85.22-4.38V3.79c0-1.85-.22-1.97-1.63-2.13v-.24h5.61v.24Z"/><path class="cls-1" d="M13.32,12.36c-1.11,1.77-2.61,2.19-3.32,2.19-2.55,0-3.92-2.01-3.92-4.14,0-1.41.52-2.69,1.39-3.56.86-.86,1.93-1.37,2.89-1.37,1.81,0,3.09,1.55,3.11,3.01,0,.32-.14.46-.56.54-.32.06-2.65.24-4.56.32.02,2.49,1.27,3.6,2.69,3.6.72,0,1.45-.24,2.13-.8l.16.22ZM8.42,8.74c.82,0,1.57-.02,2.23-.06.34-.02.52-.1.52-.36,0-1.21-.44-2.37-1.21-2.37s-1.37,1.03-1.53,2.79Z"/><path class="cls-1" d="M15.29,5.3c0-.8.16-1.43.4-1.93.3-.7.76-1.29,1.51-1.83.94-.66,1.73-.98,2.43-1.03,1.19.04,1.83.38,2.29.88C22.77.54,23.59.08,24.54,0c.72-.04,1.33.32,1.67.7.26.32.24.58.1.82-.08.2-.3.44-.54.58-.22.14-.44.06-.6-.12-.52-.46-1.17-1.15-1.79-1.15-.36,0-.56.22-.64.58-.1.46-.1,1.39-.04,3.24l.04,1.07h2.19c.1.22.02.44-.12.6h-2.07v6.01c0,1.51.26,1.63,1.35,1.75v.24h-4.62v-.24c.78-.12.94-.32.94-1.73v-6.03h-2.81v6.01c0,1.41.22,1.63,1.07,1.75v.24h-4.6v-.24c.94-.12,1.19-.32,1.19-1.75v-6.01h-1.27l-.06-.14.48-.46h.86v-.42ZM20.42,5.22c0-.68.08-1.27.16-1.61.12-.46.2-.66.38-1.03-.36-.64-1.11-1.45-2.13-1.45-.52,0-.84.4-1,.92-.18.68-.22,1.59-.22,2.73v.96h2.81v-.5Z"/><path class="cls-1" d="M28.84,7.65c.46-.96,1.19-2.17,2.19-2.17.74,0,1.21.52,1.21,1.13,0,.56-.44,1.11-.94,1.27-.26.1-.44.04-.58-.06-.36-.28-.52-.42-.84-.42-.38,0-.76.28-1.09,1v4c0,1.47.1,1.53,1.55,1.67v.24h-5.18v-.24c1.04-.14,1.29-.2,1.29-1.65v-4.58c0-1.05-.12-1.17-1.02-1.43v-.22c.88-.12,2.09-.34,3.34-.76v2.21h.04Z"/><path class="cls-1" d="M39.79,12.36c-1.11,1.77-2.61,2.19-3.32,2.19-2.55,0-3.92-2.01-3.92-4.14,0-1.41.52-2.69,1.39-3.56.86-.86,1.93-1.37,2.89-1.37,1.81,0,3.09,1.55,3.11,3.01,0,.32-.14.46-.56.54-.32.06-2.65.24-4.56.32.02,2.49,1.27,3.6,2.69,3.6.72,0,1.45-.24,2.13-.8l.16.22ZM34.89,8.74c.82,0,1.57-.02,2.23-.06.34-.02.52-.1.52-.36,0-1.21-.44-2.37-1.21-2.37s-1.37,1.03-1.53,2.79Z"/><path class="cls-1" d="M49.84,5.95c-.94.26-1.07.38-1.63,1.69-.52,1.21-1.09,2.75-2.23,5.69-1.25,3.2-1.71,4.6-2.05,5.69-.12.46-.36.58-.62.58-.46,0-1.23-.52-1.23-1.13,0-.2.14-.42.52-.66.8-.5,1.27-.86,1.75-1.73.18-.34.32-.7.4-.92.08-.28-.08-.62-.24-1.05-.96-2.85-2.01-5.63-2.51-6.83-.34-.8-.52-1.13-1.35-1.33v-.24h4.6v.24c-.88.24-1.07.36-.8,1.17l1.63,4.82c.58-1.55,1.04-3.05,1.49-4.66.24-.78.06-1.09-.92-1.33v-.24h3.18v.24Z"/><path class="cls-1" d="M59.16,1.66c-1.33.16-1.49.28-1.49,2.13v6.51c0,2.33-.08,4.02-1.71,5.61-.88.88-1.61,1.27-2.41,1.49l-.14-.24c.76-.32,1.37-1,1.55-2.27.18-1.19.22-2.85.22-4.38V3.79c0-1.85-.22-1.97-1.63-2.13v-.24h5.61v.24Z"/><path class="cls-1" d="M66.72,12.36c-1.11,1.77-2.61,2.19-3.32,2.19-2.55,0-3.92-2.01-3.92-4.14,0-1.41.52-2.69,1.39-3.56.86-.86,1.93-1.37,2.89-1.37,1.81,0,3.09,1.55,3.11,3.01,0,.32-.14.46-.56.54-.32.06-2.65.24-4.56.32.02,2.49,1.27,3.6,2.69,3.6.72,0,1.45-.24,2.13-.8l.16.22ZM61.83,8.74c.82,0,1.57-.02,2.23-.06.34-.02.52-.1.52-.36,0-1.21-.44-2.37-1.21-2.37s-1.37,1.03-1.53,2.79Z"/><path class="cls-1" d="M72.87,14.31v-.24c.9-.14,1.02-.18,1.02-2.03v-3.36c0-1.45-.64-1.93-1.37-1.93-.5,0-1.02.24-1.51.62v5.04c0,1.47.14,1.53.98,1.67v.24h-4.6v-.24c1.19-.14,1.31-.18,1.31-1.87v-4.14c0-1.33-.12-1.41-1.02-1.69v-.2c.96-.14,2.21-.42,3.32-.74v1.49c.46-.3.82-.6,1.19-.84.64-.44.99-.62,1.55-.62,1.51,0,2.47,1.25,2.47,3.11v3.8c0,1.51.08,1.55,1.09,1.69v.24h-4.44Z"/><path class="cls-1" d="M83.34,8.04c-.42-1.03-1.11-2.11-2.11-2.11-.62,0-1.07.5-1.07,1.23,0,.78.62,1.25,1.43,1.67,1.49.74,2.45,1.41,2.45,2.85,0,1.95-1.75,2.87-3.34,2.87-.96,0-1.87-.36-2.29-.58-.1-.3-.28-1.67-.28-2.59l.2-.04c.5,1.27,1.47,2.79,2.67,2.79.66,0,1.09-.54,1.09-1.21s-.26-1.19-1.43-1.81c-.98-.54-2.37-1.33-2.37-2.85s1.13-2.79,3.14-2.79c.84,0,1.37.2,1.75.36.18.46.38,1.75.42,2.09l-.26.12Z"/><path class="cls-1" d="M92.42,12.36c-1.11,1.77-2.61,2.19-3.32,2.19-2.55,0-3.92-2.01-3.92-4.14,0-1.41.52-2.69,1.39-3.56.86-.86,1.93-1.37,2.89-1.37,1.81,0,3.09,1.55,3.11,3.01,0,.32-.14.46-.56.54-.32.06-2.65.24-4.56.32.02,2.49,1.27,3.6,2.69,3.6.72,0,1.45-.24,2.13-.8l.16.22ZM87.52,8.74c.82,0,1.57-.02,2.23-.06.34-.02.52-.1.52-.36,0-1.21-.44-2.37-1.21-2.37s-1.37,1.03-1.53,2.79Z"/><path class="cls-1" d="M98.57,14.31v-.24c.9-.14,1.02-.18,1.02-2.03v-3.36c0-1.45-.64-1.93-1.37-1.93-.5,0-1.02.24-1.51.62v5.04c0,1.47.14,1.53.98,1.67v.24h-4.6v-.24c1.19-.14,1.31-.18,1.31-1.87v-4.14c0-1.33-.12-1.41-1.02-1.69v-.2c.96-.14,2.21-.42,3.32-.74v1.49c.46-.3.82-.6,1.19-.84.64-.44.99-.62,1.55-.62,1.51,0,2.47,1.25,2.47,3.11v3.8c0,1.51.08,1.55,1.09,1.69v.24h-4.44Z"/><path class="cls-1" d="M114.3,14.31v-.24c1.37-.22,1.39-.6,1.03-1.63-.24-.66-.58-1.71-1-2.83h-3.74c-.34.92-.64,1.83-.9,2.71-.38,1.17-.3,1.47,1.29,1.75v.24h-4.08l.02-.24c1.19-.16,1.47-.56,2.17-2.33l4.14-10.37.64-.26c1.25,3.52,2.51,7.03,3.82,10.51.7,1.91,1,2.29,2.11,2.45v.24h-5.51ZM112.56,4.46h-.06c-.58,1.53-1.13,3.07-1.69,4.54h3.28l-1.53-4.54Z"/><path class="cls-1" d="M124.03,7.65c.46-.96,1.19-2.17,2.19-2.17.74,0,1.21.52,1.21,1.13,0,.56-.44,1.11-.94,1.27-.26.1-.44.04-.58-.06-.36-.28-.52-.42-.84-.42-.38,0-.76.28-1.09,1v4c0,1.47.1,1.53,1.55,1.67v.24h-5.18v-.24c1.03-.14,1.29-.2,1.29-1.65v-4.58c0-1.05-.12-1.17-1.02-1.43v-.22c.88-.12,2.09-.34,3.34-.76v2.21h.04Z"/><path class="cls-1" d="M133.23,14.31v-.24c.9-.14,1.02-.18,1.02-2.03v-3.36c0-1.45-.64-1.93-1.37-1.93-.5,0-1.02.24-1.51.62v5.04c0,1.47.14,1.53.98,1.67v.24h-4.6v-.24c1.19-.14,1.31-.18,1.31-1.87v-4.14c0-1.33-.12-1.41-1.02-1.69v-.2c.96-.14,2.21-.42,3.32-.74v1.49c.46-.3.82-.6,1.19-.84.64-.44,1-.62,1.55-.62,1.51,0,2.47,1.25,2.47,3.11v3.8c0,1.51.08,1.55,1.09,1.69v.24h-4.44Z"/><path class="cls-1" d="M145.77,12.36c-1.11,1.77-2.61,2.19-3.32,2.19-2.55,0-3.92-2.01-3.92-4.14,0-1.41.52-2.69,1.39-3.56s1.93-1.37,2.89-1.37c1.81,0,3.09,1.55,3.11,3.01,0,.32-.14.46-.56.54-.32.06-2.65.24-4.56.32.02,2.49,1.27,3.6,2.69,3.6.72,0,1.45-.24,2.13-.8l.16.22ZM140.87,8.74c.82,0,1.57-.02,2.23-.06.34-.02.52-.1.52-.36,0-1.21-.44-2.37-1.21-2.37s-1.37,1.03-1.53,2.79Z"/><path class="cls-1" d="M150.96,14.33c-.28.14-.6.22-.74.22-1.53,0-2.37-.68-2.37-2.39v-5.85h-1.19l-.04-.12.46-.48h.78v-1.65l2.11-1.51.22.1v3.06h1.91c.16.22.12.46-.08.6h-1.83v5.41c0,1.51.66,1.79,1.15,1.79.38,0,.62-.1.98-.26l.12.36-1.47.72Z"/><path class="cls-1" d="M156.91,14.33c-.28.14-.6.22-.74.22-1.53,0-2.37-.68-2.37-2.39v-5.85h-1.19l-.04-.12.46-.48h.78v-1.65l2.11-1.51.22.1v3.06h1.91c.16.22.12.46-.08.6h-1.83v5.41c0,1.51.66,1.79,1.15,1.79.38,0,.62-.1.98-.26l.12.36-1.47.72Z"/><path class="cls-1" d="M162.37,13.78c0,1.51-1.39,2.37-2.71,2.73l-.18-.24c1.03-.52,1.51-1.11,1.51-1.89,0-.66-.42-1.13-1.25-1.29-.06-.02-.22-.24-.22-.52,0-.58.48-.94.99-.94.8,0,1.85.82,1.85,2.15Z"/><path class="cls-1" d="M172.72,1.42c1.57,0,2.67.22,3.38.74.94.66,1.43,1.59,1.43,2.87,0,2.55-1.95,3.78-3.98,4.04-.32.04-.54.04-.74.04l-1.31-.3v3.14c0,1.85.2,1.97,1.75,2.13v.24h-5.85v-.24c1.45-.16,1.63-.28,1.63-2.13V3.8c0-1.87-.18-1.99-1.53-2.15v-.24h5.21ZM171.5,8.36c.24.08.6.16,1.04.16.6,0,2.29-.4,2.29-3.5,0-2.37-1.07-3.18-2.47-3.18-.36,0-.54.06-.68.14-.14.1-.18.3-.18.62v5.77Z"/><path class="cls-1" d="M183.35,14.31v-.24c1-.14,1.05-.36,1.05-1.55v-3.72c0-1.61-.64-2.15-1.47-2.15-.5,0-1.01.22-1.41.58v5.29c0,1.21.06,1.41.92,1.55v.24h-4.5v-.24c1.13-.14,1.25-.16,1.25-1.69V2.49c0-1.39-.1-1.43-1.13-1.51v-.24c1.13-.12,2.55-.4,3.46-.68v6.75c.68-.68,1.57-1.33,2.57-1.33,1.65,0,2.63,1.07,2.63,3.34v3.56c0,1.53.08,1.55,1.07,1.69v.24h-4.44Z"/><path class="cls-1" d="M189.24,13.3c0-.72.52-1.25,1.19-1.25s1.21.54,1.21,1.25-.52,1.25-1.21,1.25-1.19-.52-1.19-1.25Z"/><path class="cls-1" d="M199.21,1.42c2.39,0,4.32.52,5.49,1.67.98.98,1.75,2.27,1.75,4.28,0,2.41-.98,4.14-2.45,5.29-1.43,1.11-3.44,1.65-5.85,1.65h-4.86v-.24c1.53-.14,1.73-.28,1.73-2.15V3.8c0-1.89-.2-1.99-1.59-2.15v-.24h5.77ZM197.5,11.65c0,1.63.28,2.15,1.61,2.15,2.65,0,4.56-2.37,4.56-6.09,0-2.03-.6-3.68-1.59-4.66-.8-.82-1.81-1.17-3.08-1.17-.8,0-1.15.14-1.29.26-.14.14-.2.56-.2,1.23v8.28Z"/><path class="cls-1" d="M207.59,13.3c0-.72.52-1.25,1.19-1.25s1.21.54,1.21,1.25-.52,1.25-1.21,1.25-1.19-.52-1.19-1.25Z"/></svg>